# xmcd CD database file
#
# Track frame offsets:
#	150
#	19682
#	38752
#	61805
#	75770
#	97962
#	102472
#	124905
#	148960
#	162305
#	183355
#
# Disc length: 2647 seconds
#
# Revision: 0
# Processed by: cddbd v1.5.2PL0 Copyright (c) Steve Scherf et al.
# Submitted via: CDex 1.51
#
DISCID=870a550b
DTITLE=Barbara Christy - The Ultimate Power
DYEAR=1994
DGENRE=Jazz
TTITLE0=Crusin'
TTITLE1=Time
TTITLE2=What's Up?
TTITLE3=Old Souls
TTITLE4=Perceptions
TTITLE5=Majesty (Interlude)
TTITLE6=Into Gold
TTITLE7=Just After Sunset
TTITLE8=The Ultimate Power
TTITLE9=That's Amazing!
TTITLE10=Trumpet In The Mist
EXTD=YEAR: 1994
EXTT0=
EXTT1=
EXTT2=
EXTT3=
EXTT4=
EXTT5=
EXTT6=
EXTT7=
EXTT8=
EXTT9=
EXTT10=
PLAYORDER=
